<svg width="511" height="479" viewBox="0 0 511 479" fill="none" xmlns="http://www.w3.org/2000/svg">
<path fill-rule="evenodd" clip-rule="evenodd" d="M135.5 208C60.6655 208 0 268.665 0 343.5C0 418.335 60.6655 479 135.5 479C210.334 479 271 418.335 271 343.5C271 268.665 210.334 208 135.5 208ZM92 296C83.7158 296 77 302.716 77 311C77 319.284 83.7158 326 92 326C100.284 326 107 319.284 107 311C107 302.716 100.284 296 92 296ZM163 311C163 302.716 169.716 296 178 296C186.284 296 193 302.716 193 311C193 319.284 186.284 326 178 326C169.716 326 163 319.284 163 311ZM124.953 356.808C124.294 348.55 117.066 342.389 108.808 343.048C100.55 343.706 94.3892 350.934 95.0474 359.192C98.9185 407.749 171.246 409.205 174.959 359.108C175.571 350.848 169.37 343.653 161.109 343.041C152.847 342.429 145.653 348.63 145.041 356.892C144.759 360.699 143.332 362.692 141.933 363.864C140.315 365.221 137.884 366.146 135.066 366.146C132.25 366.146 129.791 365.219 128.138 363.84C126.7 362.64 125.256 360.619 124.953 356.808Z" fill="#6366F1"/>
<path fill-rule="evenodd" clip-rule="evenodd" d="M375.5 479C334.384 479 297.546 460.688 272.696 431.773C289.933 406.298 300 375.575 300 342.5C300 309.912 290.227 279.606 273.452 254.354C298.29 225.945 334.799 208 375.5 208C450.335 208 511 268.665 511 343.5C511 418.335 450.335 479 375.5 479ZM334 296C325.716 296 319 302.716 319 311C319 319.284 325.716 326 334 326C342.284 326 349 319.284 349 311C349 302.716 342.284 296 334 296ZM405 311C405 302.716 411.716 296 420 296C428.284 296 435 302.716 435 311C435 319.284 428.284 326 420 326C411.716 326 405 319.284 405 311ZM366.953 356.808C366.294 348.55 359.066 342.389 350.808 343.048C342.55 343.706 336.389 350.934 337.047 359.192C340.918 407.749 413.246 409.205 416.959 359.108C417.571 350.848 411.37 343.653 403.109 343.041C394.847 342.429 387.653 348.63 387.041 356.892C386.759 360.699 385.332 362.692 383.933 363.864C382.315 365.221 379.884 366.146 377.066 366.146C374.25 366.146 371.791 365.219 370.138 363.84C368.7 362.64 367.256 360.619 366.953 356.808Z" fill="#84CC16"/>
<path fill-rule="evenodd" clip-rule="evenodd" d="M256.5 0C181.666 0 121 60.665 121 135.5C121 150.066 123.299 164.097 127.553 177.247C129.257 177.152 130.968 177.085 132.686 177.045L133.789 177.022C134.691 177.008 135.594 177 136.5 177C184.071 177 226.777 197.825 256 230.856C285.223 197.825 327.929 177 375.5 177C378.834 177 382.145 177.103 385.429 177.304C389.695 164.138 392 150.088 392 135.5C392 60.665 331.334 0 256.5 0ZM213 84C204.716 84 198 90.7158 198 99C198 107.284 204.716 114 213 114C221.284 114 228 107.284 228 99C228 90.7158 221.284 84 213 84ZM284 99C284 90.7158 290.716 84 299 84C307.284 84 314 90.7158 314 99C314 107.284 307.284 114 299 114C290.716 114 284 107.284 284 99ZM245.953 144.808C245.294 136.55 238.066 130.389 229.808 131.048C221.55 131.706 215.389 138.934 216.047 147.192C219.918 195.749 292.246 197.205 295.959 147.108C296.571 138.848 290.37 131.653 282.109 131.041C273.847 130.429 266.653 136.63 266.041 144.892C265.759 148.699 264.332 150.692 262.933 151.864C261.315 153.221 258.884 154.146 256.066 154.146C253.25 154.146 250.791 153.219 249.138 151.84C247.7 150.64 246.256 148.619 245.953 144.808Z" fill="#F43F5E"/>
</svg>
