<svg width="20" height="21" viewBox="0 0 20 21" fill="none" xmlns="http://www.w3.org/2000/svg">
<path d="M10.0001 19.0119C14.7011 19.0119 18.512 15.2011 18.512 10.5C18.512 5.79901 14.7011 1.9881 10.0001 1.9881C5.29907 1.9881 1.48816 5.79901 1.48816 10.5C1.48816 15.2011 5.29907 19.0119 10.0001 19.0119Z" fill="#3366FF" stroke="#3366FF" stroke-width="1.66667" stroke-linecap="round" stroke-linejoin="round"/>
<path d="M8.03577 14.4286H11.9643" stroke="white" stroke-width="1.66667" stroke-linecap="round" stroke-linejoin="round"/>
<path d="M9.99995 14.4286V9.84525H8.69043" stroke="white" stroke-width="1.66667" stroke-linecap="round" stroke-linejoin="round"/>
<path d="M9.99999 6.89881C9.81918 6.89881 9.67261 6.75224 9.67261 6.57143C9.67261 6.39062 9.81918 6.24405 9.99999 6.24405" stroke="white" stroke-width="1.66667" stroke-linecap="round" stroke-linejoin="round"/>
<path d="M10 6.89881C10.1808 6.89881 10.3274 6.75224 10.3274 6.57143C10.3274 6.39062 10.1808 6.24405 10 6.24405" stroke="white" stroke-width="1.66667" stroke-linecap="round" stroke-linejoin="round"/>
</svg>
