<svg width="20" height="21" viewBox="0 0 20 21" fill="none" xmlns="http://www.w3.org/2000/svg">
<path d="M11.1655 2.7082C11.0556 2.4937 10.8886 2.31368 10.683 2.18798C10.4774 2.06228 10.241 1.99577 10 1.99577C9.75899 1.99577 9.52265 2.06228 9.31702 2.18798C9.11138 2.31368 8.94442 2.4937 8.83454 2.7082L1.63215 17.113C1.5317 17.3123 1.48387 17.534 1.49321 17.7571C1.50256 17.9801 1.56876 18.197 1.68553 18.3873C1.8023 18.5775 1.96577 18.7348 2.16042 18.844C2.35505 18.9534 2.5744 19.0111 2.79763 19.0118H17.2024C17.4256 19.0111 17.645 18.9534 17.8396 18.844C18.0343 18.7348 18.1977 18.5775 18.3145 18.3873C18.4312 18.197 18.4975 17.9801 18.5068 17.7571C18.5162 17.534 18.4683 17.3123 18.3678 17.113L11.1655 2.7082Z" fill="#FCC319" stroke="#FCC319" stroke-width="1.66667" stroke-linecap="round" stroke-linejoin="round"/>
<path d="M10 7.88096V12.1369" stroke="black" stroke-width="1.66667" stroke-linecap="round" stroke-linejoin="round"/>
<path d="M9.99999 15.7381C9.81918 15.7381 9.67261 15.5916 9.67261 15.4107C9.67261 15.2299 9.81918 15.0833 9.99999 15.0833" stroke="black" stroke-width="1.66667" stroke-linecap="round" stroke-linejoin="round"/>
<path d="M10 15.7381C10.1808 15.7381 10.3274 15.5916 10.3274 15.4107C10.3274 15.2299 10.1808 15.0833 10 15.0833" stroke="black" stroke-width="1.66667" stroke-linecap="round" stroke-linejoin="round"/>
</svg>
