<svg data-v-0dd9719b="" version="1.0" xmlns="http://www.w3.org/2000/svg" xmlns:xlink="http://www.w3.org/1999/xlink" width="100%" height="100%" viewBox="0 0 245.79 62.48" preserveAspectRatio="xMidYMid meet" color-interpolation-filters="sRGB">
  <!-- 배경과 워터마크 레이어 제거 -->
  
  <g data-v-0dd9719b="" fill="#f9bf4b" class="pmspacesvg" transform="translate(0, 0)">
    <g>
      <g mask="url(#5982b1f8-6109-4f45-99b8-366b2732ba0f)">
        <g>
          <rect data-gra="graph-name" fill="#f9bf4b" x="0" y="0" rx="31.24" ry="31.24" width="245.79" height="62.48"></rect>
        </g>
        <g data-gra="path-name" class="tp-name" transform="translate(20,10)">
          <g transform="scale(1)">
            <g>
              <path d="M35.76-29.52C37.14-37.62 31.86-42.48 23.76-42.48L6.72-42.48 0.78 0 18.12 0C27.54 0 32.7-4.14 34.74-10.98 35.76-14.22 35.82-19.68 30.36-22.62 33.66-24.18 35.4-27.6 35.76-29.52ZM15.18-25.86L16.26-33.42 22.5-33.42C27.9-33.42 26.64-25.86 21.42-25.86ZM12.9-9.42L14.1-18.12 20.34-18.12C26.7-18.12 25.62-9.42 19.14-9.42ZM61.44 0L74.82 0 64.62-14.58C70.44-17.34 73.8-19.98 74.88-27.84 76.08-37.8 69.84-42.48 61.08-42.48L44.1-42.48 38.16 0 49.02 0 50.88-13.5 52.8-13.5ZM52.2-22.74L53.58-32.46 59.88-32.46C63.06-32.46 64.32-30.24 64.02-27.66 63.72-25.2 61.8-22.74 58.5-22.74ZM93.42-42.48L82.68-42.48 76.74 0 87.48 0ZM109.56-32.34L128.28-32.34 129.72-42.48 100.14-42.48 94.2 0 123.78 0 125.16-10.14 106.44-10.14 107.34-16.5 124.56-16.5 125.88-26.04 108.66-26.04ZM129.48 0L140.22 0 142.56-16.98 142.44-25.2 142.68-25.26 145.2-16.74 152.46 0 163.32 0 169.26-42.48 158.58-42.48 155.88-23.22 156-15.9 155.76-15.84 153.36-24.36 145.62-42.48 135.42-42.48ZM175.98-42.48L170.04 0 185.94 0C194.46 0 202.98-4.2 204.36-13.98L206.4-28.26C207.78-38.16 200.4-42.48 191.88-42.48ZM182.22-10.08L185.4-32.46 190.86-32.46C193.8-32.46 195.9-30.6 195.6-28.26L193.56-13.98C193.26-11.7 190.62-10.08 187.68-10.08Z" transform="translate(-0.78, 42.48)"></path>
            </g>
          </g>
        </g>
      </g>
    </g>
  </g>
  <mask id="5982b1f8-6109-4f45-99b8-366b2732ba0f">
    <g fill="white">
      <rect data-gra="graph-name" x="0" y="0" rx="31.24" ry="31.24" width="245.79" height="62.48"></rect>
    </g>
    <g data-gra="path-name" class="tp-name" transform="translate(20,10)" fill="black">
      <g transform="scale(1)">
        <g>
          <path d="M35.76-29.52C37.14-37.62 31.86-42.48 23.76-42.48L6.72-42.48 0.78 0 18.12 0C27.54 0 32.7-4.14 34.74-10.98 35.76-14.22 35.82-19.68 30.36-22.62 33.66-24.18 35.4-27.6 35.76-29.52ZM15.18-25.86L16.26-33.42 22.5-33.42C27.9-33.42 26.64-25.86 21.42-25.86ZM12.9-9.42L14.1-18.12 20.34-18.12C26.7-18.12 25.62-9.42 19.14-9.42ZM61.44 0L74.82 0 64.62-14.58C70.44-17.34 73.8-19.98 74.88-27.84 76.08-37.8 69.84-42.48 61.08-42.48L44.1-42.48 38.16 0 49.02 0 50.88-13.5 52.8-13.5ZM52.2-22.74L53.58-32.46 59.88-32.46C63.06-32.46 64.32-30.24 64.02-27.66 63.72-25.2 61.8-22.74 58.5-22.74ZM93.42-42.48L82.68-42.48 76.74 0 87.48 0ZM109.56-32.34L128.28-32.34 129.72-42.48 100.14-42.48 94.2 0 123.78 0 125.16-10.14 106.44-10.14 107.34-16.5 124.56-16.5 125.88-26.04 108.66-26.04ZM129.48 0L140.22 0 142.56-16.98 142.44-25.2 142.68-25.26 145.2-16.74 152.46 0 163.32 0 169.26-42.48 158.58-42.48 155.88-23.22 156-15.9 155.76-15.84 153.36-24.36 145.62-42.48 135.42-42.48ZM175.98-42.48L170.04 0 185.94 0C194.46 0 202.98-4.2 204.36-13.98L206.4-28.26C207.78-38.16 200.4-42.48 191.88-42.48ZM182.22-10.08L185.4-32.46 190.86-32.46C193.8-32.46 195.9-30.6 195.6-28.26L193.56-13.98C193.26-11.7 190.62-10.08 187.68-10.08Z" transform="translate(-0.78, 42.48)"></path>
        </g>
      </g>
    </g>
  </mask>
  <defs v-gra="od"></defs>
</svg>
